<?xml version="1.0" standalone="no"?>
<!DOCTYPE svg PUBLIC "-//W3C//DTD SVG 20010904//EN"
 "http://www.w3.org/TR/2001/REC-SVG-20010904/DTD/svg10.dtd">
<svg version="1.0" xmlns="http://www.w3.org/2000/svg"
 width="512.000000pt" height="512.000000pt" viewBox="0 0 512.000000 512.000000"
 preserveAspectRatio="xMidYMid meet">

<g transform="translate(0.000000,512.000000) scale(0.100000,-0.100000)"
fill="#000000" stroke="none">
<path d="M0 2560 l0 -2560 590 0 589 0 11 43 c17 67 88 226 138 307 62 102
162 221 222 264 27 19 47 29 43 21 -3 -8 -9 -15 -14 -15 -5 0 -9 -9 -9 -20 0
-11 -5 -20 -12 -20 -6 0 -8 -3 -5 -7 4 -3 0 -15 -10 -25 -24 -27 -2 -22 32 8
17 14 45 38 64 52 18 15 28 28 22 30 -14 5 28 62 46 62 7 0 13 -9 13 -21 0
-11 5 -17 10 -14 6 4 7 11 4 17 -5 7 -1 9 9 5 8 -3 21 1 27 8 7 8 16 12 21 10
4 -3 15 10 24 29 9 19 24 38 33 42 24 11 72 11 72 0 0 -5 8 -3 18 6 9 8 29 19
44 26 23 10 26 9 21 -5 -5 -12 -2 -13 13 -5 11 6 28 20 39 32 11 13 34 29 50
37 17 7 38 19 47 25 30 21 31 1 1 -33 -47 -53 -54 -59 -64 -54 -5 4 -9 1 -9
-5 0 -7 7 -10 15 -6 13 4 13 2 5 -14 -6 -10 -18 -23 -27 -28 -9 -5 -13 -15 -9
-21 6 -9 11 -9 22 0 7 6 25 8 39 5 14 -3 35 -1 47 6 51 28 128 79 134 89 3 6
16 14 28 19 20 8 20 8 -8 19 -15 6 -52 27 -81 46 -28 19 -58 35 -65 35 -7 0
-30 -15 -51 -34 -37 -34 -117 -82 -91 -55 17 18 15 39 -3 39 -8 0 -15 3 -15 8
0 11 73 72 87 72 7 0 13 2 13 5 0 7 -75 74 -117 104 -69 49 -206 187 -285 286
-111 138 -142 203 -209 430 -33 114 -32 270 5 518 24 162 27 208 22 320 -3 73
-8 188 -11 257 -4 88 -2 140 8 175 12 46 16 50 56 62 24 7 48 19 55 27 13 16
62 32 127 41 64 9 174 -9 234 -40 28 -13 65 -27 82 -31 29 -6 33 -3 47 31 31
73 14 135 -43 156 -14 6 -53 15 -86 20 -257 41 -303 38 -376 -27 -44 -39 -79
-58 -65 -36 3 5 15 52 26 105 24 110 103 327 125 343 8 6 15 16 15 23 0 14 17
15 25 1 4 -6 12 -6 23 -1 24 13 53 23 78 28 12 2 43 15 70 29 44 24 49 24 60
9 13 -17 3 -61 -24 -111 -19 -35 -40 -115 -35 -134 6 -23 27 -28 73 -18 20 4
49 3 68 -3 37 -12 94 3 197 52 33 15 76 32 97 37 32 9 37 8 41 -10 5 -17 12
-20 38 -16 23 4 39 0 53 -13 11 -11 28 -20 38 -20 10 -1 21 -2 26 -3 4 -1 27
-6 52 -10 118 -20 219 -81 205 -125 -3 -12 -11 -21 -18 -21 -6 0 -35 -14 -63
-32 -65 -39 -78 -71 -60 -147 9 -37 61 -101 83 -101 7 0 13 -5 13 -10 0 -6 7
-10 16 -8 10 2 19 -4 21 -12 4 -12 3 -12 -5 -2 -7 10 -11 4 -16 -22 -4 -20
-15 -40 -25 -45 -9 -5 -28 -42 -41 -83 -14 -40 -30 -77 -37 -83 -6 -5 -19 -30
-28 -55 -34 -95 -94 -338 -95 -385 0 -31 -41 -170 -53 -182 -4 -3 -7 -16 -7
-27 0 -12 -7 -34 -15 -50 -10 -19 -16 -67 -19 -145 -1 -67 -8 -126 -15 -140
-7 -12 -10 -29 -7 -36 2 -7 -2 -21 -9 -32 -8 -10 -15 -21 -15 -24 0 -3 25 -32
55 -64 30 -32 55 -60 55 -64 1 -3 9 -24 20 -46 11 -22 19 -46 20 -53 0 -22
-86 -53 -171 -62 -44 -4 -82 -10 -85 -13 -4 -3 -7 -17 -8 -30 -1 -23 -6 -26
-57 -31 -31 -4 -68 -2 -83 4 -34 13 -64 13 -50 1 5 -5 41 -16 79 -26 39 -9 79
-22 90 -28 11 -5 39 -9 62 -8 24 0 43 -3 43 -8 0 -5 20 -12 45 -15 40 -6 73
-24 42 -23 -79 3 -137 -5 -137 -17 0 -8 -6 -17 -12 -19 -7 -3 1 -6 17 -7 24
-1 26 -3 11 -9 -14 -5 -3 -12 43 -26 39 -13 63 -27 67 -38 3 -10 9 -16 12 -13
3 4 11 -8 17 -26 7 -22 16 -32 27 -30 8 1 18 -4 22 -13 3 -8 11 -15 18 -15 16
-1 51 -72 39 -80 -4 -3 -6 -14 -3 -25 3 -11 5 -56 4 -100 -1 -67 -4 -83 -21
-96 -20 -16 -16 -18 78 -48 55 -18 105 -38 111 -46 7 -8 18 -15 26 -15 7 0 17
-6 21 -14 4 -7 42 -30 83 -50 41 -21 82 -44 91 -52 8 -8 27 -14 40 -14 14 0
32 -9 42 -20 9 -11 24 -20 32 -20 8 0 15 -6 15 -13 0 -14 40 -37 65 -37 8 0
15 -5 15 -11 0 -6 24 -34 54 -63 64 -61 76 -82 76 -134 0 -26 5 -42 15 -46 8
-3 15 -11 15 -18 0 -10 -2 -10 -8 -1 -5 8 -17 -17 -31 -62 -13 -41 -28 -75
-33 -75 -4 0 -8 -18 -8 -40 l0 -40 920 0 920 0 0 2560 0 2560 -2560 0 -2560 0
0 -2560z m4744 509 c-53 -56 -105 -92 -115 -82 -15 15 4 42 55 78 40 29 76 45
85 38 3 -2 -9 -17 -25 -34z m-1517 -310 c-49 -40 -63 -70 -72 -149 -6 -62 -5
-69 30 -135 20 -38 46 -81 58 -94 l22 -24 -76 6 c-79 5 -190 46 -218 80 -18
23 -7 117 20 174 19 40 82 104 137 141 24 16 72 29 112 31 23 1 22 -1 -13 -30z
m-197 17 c0 -3 -4 -8 -10 -11 -5 -3 -10 -1 -10 4 0 6 5 11 10 11 6 0 10 -2 10
-4z m-43 -60 c-8 -9 -19 -30 -22 -48 -4 -18 -13 -40 -19 -50 -12 -19 -36 -25
-36 -8 0 6 4 10 9 10 6 0 9 12 8 28 -2 20 2 27 16 26 9 -1 17 5 17 14 0 17 30
55 38 48 2 -3 -3 -12 -11 -20z m1145 -151 c19 -85 14 -434 -7 -534 -30 -144
-92 -334 -69 -211 5 25 9 104 8 175 0 82 4 133 10 137 7 5 4 13 -9 22 -11 9
-15 16 -9 16 14 0 13 52 -1 62 -6 5 -5 8 4 8 9 0 11 8 6 28 -6 23 -6 94 -1
229 0 17 4 35 9 39 4 4 7 18 7 30 0 13 5 26 11 29 5 4 9 17 8 28 -5 64 12 34
33 -58z m-877 61 l30 -24 -28 -11 c-15 -6 -30 -18 -33 -26 -12 -29 -22 -15
-26 35 -4 59 9 64 57 26z m313 12 c13 -83 12 -94 -2 -113 -14 -19 -15 -15 -16
53 0 39 4 72 8 72 5 0 9 -6 10 -12z m-548 -268 c0 -14 45 -30 86 -32 25 -1 29
-4 20 -14 -7 -8 -15 -9 -23 -2 -9 7 -13 7 -13 -1 0 -18 -19 -13 -56 17 -34 27
-43 42 -24 42 6 0 10 -5 10 -10z m88 -177 c-2 -10 -10 -18 -18 -18 -8 0 -16 8
-18 18 -2 12 3 17 18 17 15 0 20 -5 18 -17z m62 7 c0 -6 20 -15 44 -22 36 -9
42 -14 30 -23 -13 -9 -13 -15 2 -50 17 -40 16 -52 -4 -213 -9 -68 -28 -105
-59 -115 -4 -1 -6 -9 -5 -18 4 -25 -32 -50 -75 -52 -33 -1 -47 5 -77 33 -20
19 -36 39 -36 45 0 6 -9 16 -20 23 -11 7 -20 21 -20 32 0 11 -4 20 -10 20 -5
0 -10 14 -10 30 0 36 70 137 104 149 12 5 28 16 35 25 7 9 22 16 34 16 17 0
19 5 14 40 -5 39 -4 40 25 40 17 0 27 4 23 10 -3 6 -15 10 -26 10 -10 0 -19 7
-19 15 0 9 9 15 25 15 14 0 25 -5 25 -10z m1546 -79 c-4 -6 -15 -11 -24 -11
-12 0 -10 -4 8 -14 17 -9 29 -10 38 -3 11 8 11 12 0 18 -9 6 -9 9 -1 9 26 0
40 -52 18 -70 -16 -14 -35 -5 -35 16 0 17 -14 18 -42 3 -14 -8 -28 -7 -49 1
l-29 12 20 29 c14 18 31 29 53 31 36 4 53 -5 43 -21z m-38 -79 c23 -1 42 -7
42 -13 0 -7 -20 -9 -62 -6 -35 4 -73 6 -85 6 -13 1 -23 4 -23 9 0 7 35 8 128
4z m-132 -142 c18 0 19 -50 2 -51 -10 0 -10 -2 -1 -5 12 -6 -28 -73 -51 -86
-20 -11 -98 17 -114 40 -13 20 -12 24 16 50 22 20 39 28 62 26 23 -2 30 2 26
11 -5 15 12 26 32 19 8 -2 20 -4 28 -4z m-499 -162 c-3 -7 -5 -2 -5 12 0 14 2
19 5 13 2 -7 2 -19 0 -25z m-2402 -1078 c-3 -5 -10 -10 -16 -10 -5 0 -9 5 -9
10 0 6 7 10 16 10 8 0 12 -4 9 -10z m-8 -26 c-3 -3 -12 -4 -19 -1 -8 3 -5 6 6
6 11 1 17 -2 13 -5z"/>
<path d="M4100 2576 c0 -8 4 -17 9 -20 5 -4 7 3 4 14 -6 23 -13 26 -13 6z"/>
<path d="M4101 2044 c0 -11 3 -14 6 -6 3 7 2 16 -1 19 -3 4 -6 -2 -5 -13z"/>
<path d="M1815 2798 c-77 -14 -98 -22 -148 -59 -36 -27 -48 -43 -55 -76 -10
-43 3 -132 28 -198 14 -36 70 -92 107 -105 27 -10 27 -9 -7 20 -19 16 -38 30
-42 30 -5 0 -8 7 -8 16 0 8 -4 13 -8 10 -13 -8 -31 111 -26 173 5 65 28 109
72 134 41 24 140 34 171 17 l23 -12 -30 -31 c-64 -66 -81 -177 -42 -280 35
-94 85 -123 171 -103 102 24 124 55 124 176 -1 88 -25 148 -84 206 -39 39
-103 76 -138 80 -11 1 -29 4 -40 7 -10 2 -40 0 -68 -5z m90 -182 c19 -14 19
-15 1 -48 -11 -21 -17 -46 -14 -61 3 -15 2 -27 -2 -27 -11 0 -28 49 -34 103
-5 41 -3 47 12 47 10 0 27 -6 37 -14z"/>
<path d="M2254 1835 c-9 -23 3 -45 24 -45 23 0 56 35 47 49 -10 17 -65 13 -71
-4z"/>
<path d="M2400 826 c0 -2 7 -6 15 -10 8 -3 15 -1 15 4 0 6 -7 10 -15 10 -8 0
-15 -2 -15 -4z"/>
<path d="M2443 775 c-9 -20 -9 -31 3 -53 18 -36 18 -45 -6 -94 -11 -23 -20
-50 -20 -59 0 -10 -5 -21 -10 -24 -6 -4 -7 -11 -4 -17 4 -6 1 -14 -5 -18 -7
-4 -13 -22 -13 -40 -1 -19 -7 -45 -15 -59 -7 -14 -13 -31 -13 -37 0 -6 -18
-52 -40 -101 -22 -49 -46 -121 -55 -159 -8 -38 -18 -79 -21 -92 -4 -21 -2 -23
28 -20 32 3 32 3 29 55 -2 43 1 52 17 57 11 4 22 19 25 35 4 18 14 30 27 34
14 4 20 10 15 19 -3 7 0 5 8 -4 8 -10 19 -18 24 -18 13 0 31 62 38 134 3 33
11 66 17 73 6 7 7 13 4 13 -4 0 -2 9 4 20 6 12 19 52 29 91 16 63 16 80 5 167
-7 53 -13 103 -14 110 0 23 -44 13 -57 -13z"/>
<path d="M1860 760 c0 -5 4 -10 9 -10 6 0 13 5 16 10 3 6 -1 10 -9 10 -9 0
-16 -4 -16 -10z"/>
<path d="M2236 731 c-7 -11 22 -23 35 -15 5 3 9 9 9 15 0 12 -37 12 -44 0z"/>
<path d="M1827 698 c-10 -11 -16 -25 -14 -31 2 -6 12 1 22 16 21 33 17 41 -8
15z"/>
<path d="M2215 700 c-3 -5 -1 -10 4 -10 6 0 11 5 11 10 0 6 -2 10 -4 10 -3 0
-8 -4 -11 -10z"/>
<path d="M2383 698 c-15 -19 -34 -58 -29 -58 8 0 48 61 44 66 -3 2 -10 -1 -15
-8z"/>
</g>
</svg>
